<?xml version="1.0" encoding="UTF-8"?>
<svg id="Layer_2" data-name="Layer 2" xmlns="http://www.w3.org/2000/svg" viewBox="0 0 302.3 85.51">
  <defs>
    <style>
      .cls-1 {
        fill: #036;
      }

      .cls-2 {
        fill: #fdc600;
      }
    </style>
  </defs>
  <g id="Logo">
    <g>
      <path class="cls-1" d="m85.09,17.01h26.93v7.8h-17v5.25h13.97v7.35h-13.97v5.81h18.18v7.81h-28.11V17.01Z"/>
      <path class="cls-1" d="m194.9,17.01h9.03l14.36,18.97v-18.97h9.82v34.02h-8.47l-14.93-19.54v19.54h-9.82V17.01Z"/>
      <path class="cls-1" d="m152.07,44.7c-4.23,4.79-9.78,7.19-16.67,7.19-2.88,0-5.52-.44-7.91-1.33-2.39-.88-4.44-2.11-6.14-3.67-1.7-1.57-3.03-3.43-3.98-5.61-.95-2.17-1.43-4.57-1.43-7.19s.47-4.97,1.4-7.17c.93-2.19,2.26-4.1,3.98-5.71,1.72-1.61,3.78-2.87,6.17-3.77,2.39-.9,5.03-1.35,7.91-1.35,3.26,0,6.27.49,9.04,1.48,2.77.99,5.1,2.7,7.01,5.15l-6.56,6.02c-1.05-1.29-2.3-2.33-3.76-3.11-1.46-.78-3.12-1.17-4.99-1.17-1.57,0-2.97.24-4.21.72-1.23.48-2.27,1.14-3.11,1.99-.84.85-1.48,1.85-1.94,2.98-.45,1.14-.67,2.37-.67,3.7s.23,2.62.7,3.77c.47,1.16,1.13,2.16,1.99,3.01.86.85,1.9,1.52,3.11,1.99,1.22.48,2.57.71,4.07.71,2.17,0,3.94-.35,5.31-1.04,1.36-.7,2.7-1.8,4.01-3.29l6.68,5.71Z"/>
      <path class="cls-1" d="m172.27,51.84c-2.81,0-5.4-.45-7.77-1.35-2.38-.9-4.43-2.14-6.17-3.72-1.74-1.58-3.1-3.47-4.07-5.66-.97-2.19-1.46-4.58-1.46-7.16s.49-4.97,1.46-7.17c.97-2.19,2.33-4.08,4.07-5.66,1.74-1.58,3.79-2.81,6.17-3.7,2.37-.89,4.96-1.33,7.77-1.33s5.4.44,7.8,1.33c2.39.88,4.45,2.12,6.17,3.7,1.72,1.58,3.07,3.47,4.04,5.66.97,2.19,1.46,4.58,1.46,7.17s-.49,4.97-1.46,7.16c-.97,2.19-2.32,4.08-4.04,5.66-1.72,1.58-3.78,2.82-6.17,3.72-2.4.9-4.99,1.35-7.8,1.35Zm0-8.47c1.46,0,2.76-.25,3.9-.74,1.14-.49,2.1-1.16,2.89-2.02.79-.85,1.38-1.85,1.79-3.01.41-1.15.62-2.38.62-3.67s-.21-2.52-.62-3.67c-.41-1.16-1.01-2.16-1.79-3.01-.79-.85-1.75-1.52-2.89-2.02-1.14-.49-2.44-.74-3.9-.74s-2.76.25-3.9.74c-1.14.49-2.11,1.17-2.89,2.02-.79.85-1.38,1.85-1.8,3.01-.41,1.16-.62,2.38-.62,3.67s.21,2.52.62,3.67c.41,1.16,1.01,2.16,1.8,3.01.78.85,1.75,1.52,2.89,2.02,1.14.49,2.44.74,3.9.74Z"/>
      <path class="cls-1" d="m51.02,17.01h15.48c2.02,0,3.84.24,5.47.71,1.63.48,3.02,1.18,4.18,2.12,1.16.93,2.06,2.1,2.69,3.49.63,1.4.96,3.01.96,4.85,0,2.24-.54,4.19-1.63,5.84-1.09,1.65-2.53,2.97-4.32,3.95l8.02,13.06h-10.66l-6.34-11.58h-4.15v11.58h-9.71V17.01Zm14.53,15.35c1.31,0,2.37-.36,3.2-1.1.82-.73,1.23-1.71,1.23-2.93,0-1.29-.39-2.31-1.18-3.06-.79-.75-1.89-1.12-3.31-1.12h-4.77v8.21h4.83Z"/>
      <g>
        <g>
          <path class="cls-1" d="m34.02,51.02l-17.01-17.01h0c3.59,11.05,0,34.02,0,34.02l17.01-17.01Z"/>
          <path class="cls-2" d="m14.96,36.07L0,51.02l13.31,13.31c3.01-9.28,3.56-19.04,1.65-28.27"/>
        </g>
        <g>
          <path class="cls-1" d="m34.02,17.01L17.01,0h0c3.59,11.05,0,34.02,0,34.02l17.01-17.01Z"/>
          <path class="cls-2" d="m14.96,2.05L0,17.01l13.31,13.31c3.01-9.28,3.56-19.04,1.65-28.27"/>
        </g>
      </g>
      <g>
        <path class="cls-1" d="m58.57,68.07h2.8l7.46,17.01h-3.06l-1.97-4.74h-7.83l-1.97,4.74h-2.89l7.46-17.01Zm4.4,10.2l-3.08-7.47-3.11,7.47h6.19Z"/>
        <path class="cls-1" d="m76.76,68.07h2.72v7.73l7.97-7.73h3.14l-7.08,6.94,7.94,10.07h-3.28l-6.52-8.34-2.17,2.09v6.25h-2.72v-17.01Z"/>
        <path class="cls-1" d="m93.38,68.07h11.99v2.17h-9.25v4.94h6.97v2.2h-6.97v5.51h9.94v2.19h-12.68v-17.01Z"/>
        <path class="cls-1" d="m108.44,68.07h2.74v14.84h9.92v2.17h-12.66v-17.01Z"/>
        <path class="cls-1" d="m123.52,68.07h2.74v14.84h9.91v2.17h-12.65v-17.01Z"/>
        <path class="cls-1" d="m138.6,68.07h12v2.17h-9.26v4.94h6.97v2.2h-6.97v5.51h9.94v2.19h-12.68v-17.01Z"/>
        <path class="cls-1" d="m153.66,68.07h6.08c1.22,0,2.25.15,3.09.44.84.3,1.52.68,2.04,1.14.52.47.91,1.01,1.14,1.6.24.59.36,1.2.36,1.81,0,1.09-.29,2.05-.86,2.88-.57.83-1.46,1.45-2.66,1.86l4.46,7.27h-3.08l-4.09-6.96h-3.83v6.96h-2.65v-17.01Zm6.31,7.98c1.2,0,2.1-.27,2.7-.79.6-.52.9-1.24.9-2.12,0-.94-.32-1.66-.97-2.18-.64-.51-1.54-.77-2.68-.77h-3.6v5.86h3.66Z"/>
        <path class="cls-1" d="m192.13,82.1c-.21.3-.54.65-.98,1.05-.43.39-.97.75-1.6,1.1-.63.35-1.35.65-2.18.88-.81.24-1.72.36-2.71.36-1.41,0-2.69-.22-3.85-.66-1.16-.44-2.16-1.06-3-1.85-.83-.79-1.49-1.72-1.96-2.8-.47-1.08-.7-2.26-.7-3.53s.23-2.41.7-3.5c.47-1.09,1.12-2.04,1.96-2.86.84-.82,1.84-1.46,3.02-1.92,1.17-.46,2.47-.7,3.9-.7,1.01,0,1.91.11,2.71.33.8.22,1.5.5,2.1.83.6.33,1.11.69,1.54,1.08.43.39.77.76,1.04,1.12l-1.95,1.48c-.23-.29-.5-.59-.82-.91-.31-.32-.68-.6-1.12-.85-.44-.25-.95-.47-1.51-.63-.58-.17-1.23-.26-1.97-.26-1.05,0-1.99.18-2.81.54-.83.36-1.53.84-2.12,1.45-.58.61-1.02,1.32-1.32,2.14-.3.82-.46,1.69-.46,2.61s.16,1.78.48,2.59c.31.81.75,1.51,1.32,2.11.57.6,1.26,1.06,2.09,1.4.82.34,1.73.51,2.74.51.86,0,1.6-.1,2.22-.29.61-.19,1.14-.43,1.56-.7.43-.27.79-.55,1.06-.83.28-.28.51-.51.7-.71l1.92,1.43Z"/>
        <path class="cls-1" d="m202.97,85.51c-1.37,0-2.65-.23-3.83-.7-1.18-.46-2.21-1.1-3.09-1.91-.87-.81-1.56-1.75-2.05-2.84-.5-1.09-.74-2.26-.74-3.5s.24-2.4.74-3.48c.49-1.08,1.17-2.02,2.04-2.83.87-.8,1.9-1.44,3.09-1.91,1.19-.46,2.47-.7,3.84-.7s2.65.23,3.84.7c1.19.47,2.22,1.11,3.09,1.91.88.81,1.56,1.75,2.06,2.83.5,1.08.75,2.24.75,3.48s-.25,2.41-.75,3.5c-.49,1.09-1.18,2.04-2.06,2.84-.87.81-1.9,1.45-3.09,1.91-1.19.47-2.47.7-3.84.7Zm0-2.3c1.04,0,1.99-.18,2.84-.53.85-.36,1.57-.84,2.17-1.45.6-.61,1.06-1.33,1.39-2.13.32-.81.49-1.67.49-2.57s-.16-1.78-.49-2.59c-.32-.81-.79-1.52-1.39-2.13-.6-.62-1.32-1.09-2.17-1.44-.85-.35-1.79-.52-2.84-.52s-1.99.17-2.83.52c-.84.35-1.56.83-2.16,1.44-.6.61-1.06,1.32-1.38,2.13-.32.81-.49,1.67-.49,2.59s.17,1.76.49,2.57c.32.8.78,1.51,1.38,2.13.6.61,1.32,1.09,2.16,1.45.84.36,1.78.53,2.83.53Z"/>
        <path class="cls-1" d="m216.14,68.07h2.63l5.8,8.85,5.79-8.85h2.57l.89,17.01h-2.68l-.63-13.06-5.37,8.04h-1.37l-5.28-7.93-.66,12.96h-2.57l.89-17.01Z"/>
        <path class="cls-1" d="m237.43,68.07h6.03c1.3,0,2.37.16,3.21.48.85.33,1.52.74,2.03,1.23.5.49.86,1.05,1.06,1.66.2.61.3,1.2.3,1.78,0,.86-.16,1.6-.49,2.25-.32.65-.77,1.19-1.34,1.62-.57.43-1.25.76-2.04.98-.79.22-1.65.33-2.59.33h-3.46v6.68h-2.71v-17.01Zm6.14,8.23c1.18,0,2.09-.26,2.73-.8.64-.54.96-1.28.96-2.23s-.33-1.73-.99-2.28c-.66-.55-1.55-.83-2.7-.83h-3.43v6.14h3.43Z"/>
        <path class="cls-1" d="m256.46,68.07h2.8l7.45,17.01h-3.06l-1.97-4.74h-7.83l-1.97,4.74h-2.89l7.45-17.01Zm4.4,10.2l-3.08-7.47-3.12,7.47h6.2Z"/>
        <path class="cls-1" d="m268.62,68.07h2.77l10.4,13.29v-13.29h2.68v17.01h-2.74l-10.42-13.31v13.31h-2.69v-17.01Z"/>
        <path class="cls-1" d="m292.94,77.48l-6.57-9.41h3.06l4.97,7.27,4.97-7.27h2.94l-6.6,9.41v7.6h-2.76v-7.6Z"/>
      </g>
    </g>
  </g>
</svg>